  0
SECTION
  2
HEADER
  9
$ACADVER
  1
AC1009
  9
$EXTMIN
 10
0.0
 20
0.0
 30
0.0
  9
$EXTMAX
 10
1000.0
 20
1000.0
 30
0.0
  9
$FILLMODE
 70
 0
  9
$SPLFRAME
 70
 1
  0
ENDSEC
  0
SECTION
  2
TABLES
  0
TABLE
  2
LAYER
 70
1
  0
LAYER
  2
0
 70
     0
 62
     7
  6
CONTINUOUS
  0
ENDTAB
  0
ENDSEC
  0
SECTION
  2
ENTITIES
  0
POLYLINE
  8
0
 62
     1
 66
     1
 10
0
 20
0
 30
0.0
 70
     1
 40
0.323683
 41
0.323683
  0
VERTEX
  8
0
 10
1.72076
 20
1.06304
 30
0.0
 40
0.0044956
 41
0.0044956
  0
VERTEX
  8
0
 10
1.72076
 20
1.05756
 30
0.0
 40
0.0044956
 41
0.0044956
  0
VERTEX
  8
0
 10
1.71158
 20
1.04102
 30
0.0
 40
0.0044956
 41
0.0044956
  0
VERTEX
  8
0
 10
1.69499
 20
1.03185
 30
0.0
 40
0.0044956
 41
0.0044956
  0
VERTEX
  8
0
 10
1.68951
 20
1.03185
 30
0.0
 40
0.0044956
 41
0.0044956
  0
VERTEX
  8
0
 10
1.68397
 20
1.03185
 30
0.0
 40
0.0044956
 41
0.0044956
  0
VERTEX
  8
0
 10
1.66743
 20
1.04102
 30
0.0
 40
0.0044956
 41
0.0044956
  0
VERTEX
  8
0
 10
1.65831
 20
1.05756
 30
0.0
 40
0.0044956
 41
0.0044956
  0
VERTEX
  8
0
 10
1.65831
 20
1.06304
 30
0.0
 40
0.0044956
 41
0.0044956
  0
VERTEX
  8
0
 10
1.65831
 20
1.06858
 30
0.0
 40
0.0044956
 41
0.0044956
  0
VERTEX
  8
0
 10
1.66743
 20
1.08518
 30
0.0
 40
0.0044956
 41
0.0044956
  0
VERTEX
  8
0
 10
1.68397
 20
1.09429
 30
0.0
 40
0.0044956
 41
0.0044956
  0
VERTEX
  8
0
 10
1.68951
 20
1.09429
 30
0.0
 40
0.0044956
 41
0.0044956
  0
VERTEX
  8
0
 10
1.69499
 20
1.09429
 30
0.0
 40
0.0044956
 41
0.0044956
  0
VERTEX
  8
0
 10
1.71158
 20
1.08518
 30
0.0
 40
0.0044956
 41
0.0044956
  0
VERTEX
  8
0
 10
1.72076
 20
1.06858
 30
0.0
 40
0.0044956
 41
0.0044956
  0
VERTEX
  8
0
 10
1.72076
 20
1.06304
 30
0.0
 40
0.0044956
 41
0.0044956
  0
SEQEND
 8
0
  0
POLYLINE
  8
0
 62
     1
 66
     1
 10
0
 20
0
 30
0.0
 70
     1
 40
0.323683
 41
0.323683
  0
VERTEX
  8
0
 10
1.72011
 20
0.131185
 30
0.0
 40
0.0044956
 41
0.0044956
  0
VERTEX
  8
0
 10
1.72011
 20
0.125705
 30
0.0
 40
0.0044956
 41
0.0044956
  0
VERTEX
  8
0
 10
1.71094
 20
0.109104
 30
0.0
 40
0.0044956
 41
0.0044956
  0
VERTEX
  8
0
 10
1.69433
 20
0.0999349
 30
0.0
 40
0.0044956
 41
0.0044956
  0
VERTEX
  8
0
 10
1.68886
 20
0.0999349
 30
0.0
 40
0.0044956
 41
0.0044956
  0
VERTEX
  8
0
 10
1.68332
 20
0.0999349
 30
0.0
 40
0.0044956
 41
0.0044956
  0
VERTEX
  8
0
 10
1.66678
 20
0.109104
 30
0.0
 40
0.0044956
 41
0.0044956
  0
VERTEX
  8
0
 10
1.65767
 20
0.125705
 30
0.0
 40
0.0044956
 41
0.0044956
  0
VERTEX
  8
0
 10
1.65767
 20
0.131185
 30
0.0
 40
0.0044956
 41
0.0044956
  0
VERTEX
  8
0
 10
1.65767
 20
0.136719
 30
0.0
 40
0.0044956
 41
0.0044956
  0
VERTEX
  8
0
 10
1.66678
 20
0.153267
 30
0.0
 40
0.0044956
 41
0.0044956
  0
VERTEX
  8
0
 10
1.68332
 20
0.162381
 30
0.0
 40
0.0044956
 41
0.0044956
  0
VERTEX
  8
0
 10
1.68886
 20
0.162381
 30
0.0
 40
0.0044956
 41
0.0044956
  0
VERTEX
  8
0
 10
1.69433
 20
0.162381
 30
0.0
 40
0.0044956
 41
0.0044956
  0
VERTEX
  8
0
 10
1.71094
 20
0.153267
 30
0.0
 40
0.0044956
 41
0.0044956
  0
VERTEX
  8
0
 10
1.72011
 20
0.136719
 30
0.0
 40
0.0044956
 41
0.0044956
  0
VERTEX
  8
0
 10
1.72011
 20
0.131185
 30
0.0
 40
0.0044956
 41
0.0044956
  0
SEQEND
 8
0
  0
POLYLINE
  8
0
 62
     1
 66
     1
 10
0
 20
0
 30
0.0
 70
     1
 40
0.283465
 41
0.283465
  0
VERTEX
  8
0
 10
1.74397
 20
0.131185
 30
0.0
 40
0.00393701
 41
0.00393701
  0
VERTEX
  8
0
 10
1.74397
 20
0.125868
 30
0.0
 40
0.00393701
 41
0.00393701
  0
VERTEX
  8
0
 10
1.73964
 20
0.109755
 30
0.0
 40
0.00393701
 41
0.00393701
  0
VERTEX
  8
0
 10
1.72781
 20
0.092231
 30
0.0
 40
0.00393701
 41
0.00393701
  0
VERTEX
  8
0
 10
1.71029
 20
0.0804036
 30
0.0
 40
0.00393701
 41
0.00393701
  0
VERTEX
  8
0
 10
1.69417
 20
0.0760633
 30
0.0
 40
0.00393701
 41
0.00393701
  0
VERTEX
  8
0
 10
1.68886
 20
0.0760633
 30
0.0
 40
0.00393701
 41
0.00393701
  0
VERTEX
  8
0
 10
1.68349
 20
0.0760633
 30
0.0
 40
0.00393701
 41
0.00393701
  0
VERTEX
  8
0
 10
1.66738
 20
0.0804036
 30
0.0
 40
0.00393701
 41
0.00393701
  0
VERTEX
  8
0
 10
1.6499
 20
0.092231
 30
0.0
 40
0.00393701
 41
0.00393701
  0
VERTEX
  8
0
 10
1.63807
 20
0.109755
 30
0.0
 40
0.00393701
 41
0.00393701
  0
VERTEX
  8
0
 10
1.63379
 20
0.125868
 30
0.0
 40
0.00393701
 41
0.00393701
  0
VERTEX
  8
0
 10
1.63379
 20
0.131185
 30
0.0
 40
0.00393701
 41
0.00393701
  0
VERTEX
  8
0
 10
1.63379
 20
0.136556
 30
0.0
 40
0.00393701
 41
0.00393701
  0
VERTEX
  8
0
 10
1.63807
 20
0.152615
 30
0.0
 40
0.00393701
 41
0.00393701
  0
VERTEX
  8
0
 10
1.6499
 20
0.170139
 30
0.0
 40
0.00393701
 41
0.00393701
  0
VERTEX
  8
0
 10
1.66738
 20
0.181967
 30
0.0
 40
0.00393701
 41
0.00393701
  0
VERTEX
  8
0
 10
1.68349
 20
0.186253
 30
0.0
 40
0.00393701
 41
0.00393701
  0
VERTEX
  8
0
 10
1.68886
 20
0.186253
 30
0.0
 40
0.00393701
 41
0.00393701
  0
VERTEX
  8
0
 10
1.69417
 20
0.186253
 30
0.0
 40
0.00393701
 41
0.00393701
  0
VERTEX
  8
0
 10
1.71029
 20
0.181967
 30
0.0
 40
0.00393701
 41
0.00393701
  0
VERTEX
  8
0
 10
1.72781
 20
0.170139
 30
0.0
 40
0.00393701
 41
0.00393701
  0
VERTEX
  8
0
 10
1.73964
 20
0.152615
 30
0.0
 40
0.00393701
 41
0.00393701
  0
VERTEX
  8
0
 10
1.74397
 20
0.136556
 30
0.0
 40
0.00393701
 41
0.00393701
  0
VERTEX
  8
0
 10
1.74397
 20
0.131185
 30
0.0
 40
0.00393701
 41
0.00393701
  0
SEQEND
 8
0
  0
POLYLINE
  8
0
 62
     1
 66
     1
 10
0
 20
0
 30
0.0
 70
     1
 40
0.283465
 41
0.283465
  0
VERTEX
  8
0
 10
1.74462
 20
1.06304
 30
0.0
 40
0.00393701
 41
0.00393701
  0
VERTEX
  8
0
 10
1.74462
 20
1.05773
 30
0.0
 40
0.00393701
 41
0.00393701
  0
VERTEX
  8
0
 10
1.74029
 20
1.04161
 30
0.0
 40
0.00393701
 41
0.00393701
  0
VERTEX
  8
0
 10
1.72846
 20
1.02414
 30
0.0
 40
0.00393701
 41
0.00393701
  0
VERTEX
  8
0
 10
1.71094
 20
1.01232
 30
0.0
 40
0.00393701
 41
0.00393701
  0
VERTEX
  8
0
 10
1.69482
 20
1.00798
 30
0.0
 40
0.00393701
 41
0.00393701
  0
VERTEX
  8
0
 10
1.68951
 20
1.00798
 30
0.0
 40
0.00393701
 41
0.00393701
  0
VERTEX
  8
0
 10
1.68414
 20
1.00798
 30
0.0
 40
0.00393701
 41
0.00393701
  0
VERTEX
  8
0
 10
1.66808
 20
1.01232
 30
0.0
 40
0.00393701
 41
0.00393701
  0
VERTEX
  8
0
 10
1.65056
 20
1.02414
 30
0.0
 40
0.00393701
 41
0.00393701
  0
VERTEX
  8
0
 10
1.63872
 20
1.04161
 30
0.0
 40
0.00393701
 41
0.00393701
  0
VERTEX
  8
0
 10
1.63444
 20
1.05773
 30
0.0
 40
0.00393701
 41
0.00393701
  0
VERTEX
  8
0
 10
1.63444
 20
1.06304
 30
0.0
 40
0.00393701
 41
0.00393701
  0
VERTEX
  8
0
 10
1.63444
 20
1.06841
 30
0.0
 40
0.00393701
 41
0.00393701
  0
VERTEX
  8
0
 10
1.63872
 20
1.08453
 30
0.0
 40
0.00393701
 41
0.00393701
  0
VERTEX
  8
0
 10
1.65056
 20
1.10205
 30
0.0
 40
0.00393701
 41
0.00393701
  0
VERTEX
  8
0
 10
1.66808
 20
1.11388
 30
0.0
 40
0.00393701
 41
0.00393701
  0
VERTEX
  8
0
 10
1.68414
 20
1.11816
 30
0.0
 40
0.00393701
 41
0.00393701
  0
VERTEX
  8
0
 10
1.68951
 20
1.11816
 30
0.0
 40
0.00393701
 41
0.00393701
  0
VERTEX
  8
0
 10
1.69482
 20
1.11816
 30
0.0
 40
0.00393701
 41
0.00393701
  0
VERTEX
  8
0
 10
1.71094
 20
1.11388
 30
0.0
 40
0.00393701
 41
0.00393701
  0
VERTEX
  8
0
 10
1.72846
 20
1.10205
 30
0.0
 40
0.00393701
 41
0.00393701
  0
VERTEX
  8
0
 10
1.74029
 20
1.08453
 30
0.0
 40
0.00393701
 41
0.00393701
  0
VERTEX
  8
0
 10
1.74462
 20
1.06841
 30
0.0
 40
0.00393701
 41
0.00393701
  0
VERTEX
  8
0
 10
1.74462
 20
1.06304
 30
0.0
 40
0.00393701
 41
0.00393701
  0
SEQEND
 8
0
  0
POLYLINE
  8
0
 62
     1
 66
     1
 10
0
 20
0
 30
0.0
 70
     1
 40
0.323683
 41
0.323683
  0
VERTEX
  8
0
 10
0.203668
 20
0.58724
 30
0.0
 40
0.0044956
 41
0.0044956
  0
VERTEX
  8
0
 10
0.203668
 20
0.58176
 30
0.0
 40
0.0044956
 41
0.0044956
  0
VERTEX
  8
0
 10
0.194499
 20
0.565158
 30
0.0
 40
0.0044956
 41
0.0044956
  0
VERTEX
  8
0
 10
0.177897
 20
0.55599
 30
0.0
 40
0.0044956
 41
0.0044956
  0
VERTEX
  8
0
 10
0.172418
 20
0.55599
 30
0.0
 40
0.0044956
 41
0.0044956
  0
VERTEX
  8
0
 10
0.166883
 20
0.55599
 30
0.0
 40
0.0044956
 41
0.0044956
  0
VERTEX
  8
0
 10
0.150336
 20
0.565158
 30
0.0
 40
0.0044956
 41
0.0044956
  0
VERTEX
  8
0
 10
0.141222
 20
0.58176
 30
0.0
 40
0.0044956
 41
0.0044956
  0
VERTEX
  8
0
 10
0.141222
 20
0.58724
 30
0.0
 40
0.0044956
 41
0.0044956
  0
VERTEX
  8
0
 10
0.141222
 20
0.592774
 30
0.0
 40
0.0044956
 41
0.0044956
  0
VERTEX
  8
0
 10
0.150336
 20
0.609321
 30
0.0
 40
0.0044956
 41
0.0044956
  0
VERTEX
  8
0
 10
0.166883
 20
0.618435
 30
0.0
 40
0.0044956
 41
0.0044956
  0
VERTEX
  8
0
 10
0.172418
 20
0.618435
 30
0.0
 40
0.0044956
 41
0.0044956
  0
VERTEX
  8
0
 10
0.177897
 20
0.618435
 30
0.0
 40
0.0044956
 41
0.0044956
  0
VERTEX
  8
0
 10
0.194499
 20
0.609321
 30
0.0
 40
0.0044956
 41
0.0044956
  0
VERTEX
  8
0
 10
0.203668
 20
0.592774
 30
0.0
 40
0.0044956
 41
0.0044956
  0
VERTEX
  8
0
 10
0.203668
 20
0.58724
 30
0.0
 40
0.0044956
 41
0.0044956
  0
SEQEND
 8
0
  0
POLYLINE
  8
0
 62
     1
 66
     1
 10
0
 20
0
 30
0.0
 70
     1
 40
0.283465
 41
0.283465
  0
VERTEX
  8
0
 10
0.227539
 20
0.58724
 30
0.0
 40
0.00393701
 41
0.00393701
  0
VERTEX
  8
0
 10
0.227539
 20
0.581922
 30
0.0
 40
0.00393701
 41
0.00393701
  0
VERTEX
  8
0
 10
0.223199
 20
0.56581
 30
0.0
 40
0.00393701
 41
0.00393701
  0
VERTEX
  8
0
 10
0.211372
 20
0.548286
 30
0.0
 40
0.00393701
 41
0.00393701
  0
VERTEX
  8
0
 10
0.193847
 20
0.536458
 30
0.0
 40
0.00393701
 41
0.00393701
  0
VERTEX
  8
0
 10
0.177735
 20
0.532118
 30
0.0
 40
0.00393701
 41
0.00393701
  0
VERTEX
  8
0
 10
0.172418
 20
0.532118
 30
0.0
 40
0.00393701
 41
0.00393701
  0
VERTEX
  8
0
 10
0.167046
 20
0.532118
 30
0.0
 40
0.00393701
 41
0.00393701
  0
VERTEX
  8
0
 10
0.150988
 20
0.536458
 30
0.0
 40
0.00393701
 41
0.00393701
  0
VERTEX
  8
0
 10
0.133464
 20
0.548286
 30
0.0
 40
0.00393701
 41
0.00393701
  0
VERTEX
  8
0
 10
0.121636
 20
0.56581
 30
0.0
 40
0.00393701
 41
0.00393701
  0
VERTEX
  8
0
 10
0.11735
 20
0.581922
 30
0.0
 40
0.00393701
 41
0.00393701
  0
VERTEX
  8
0
 10
0.11735
 20
0.58724
 30
0.0
 40
0.00393701
 41
0.00393701
  0
VERTEX
  8
0
 10
0.11735
 20
0.592611
 30
0.0
 40
0.00393701
 41
0.00393701
  0
VERTEX
  8
0
 10
0.121636
 20
0.608669
 30
0.0
 40
0.00393701
 41
0.00393701
  0
VERTEX
  8
0
 10
0.133464
 20
0.626193
 30
0.0
 40
0.00393701
 41
0.00393701
  0
VERTEX
  8
0
 10
0.150988
 20
0.638021
 30
0.0
 40
0.00393701
 41
0.00393701
  0
VERTEX
  8
0
 10
0.167046
 20
0.642307
 30
0.0
 40
0.00393701
 41
0.00393701
  0
VERTEX
  8
0
 10
0.172418
 20
0.642307
 30
0.0
 40
0.00393701
 41
0.00393701
  0
VERTEX
  8
0
 10
0.177735
 20
0.642307
 30
0.0
 40
0.00393701
 41
0.00393701
  0
VERTEX
  8
0
 10
0.193847
 20
0.638021
 30
0.0
 40
0.00393701
 41
0.00393701
  0
VERTEX
  8
0
 10
0.211372
 20
0.626193
 30
0.0
 40
0.00393701
 41
0.00393701
  0
VERTEX
  8
0
 10
0.223199
 20
0.608669
 30
0.0
 40
0.00393701
 41
0.00393701
  0
VERTEX
  8
0
 10
0.227539
 20
0.592611
 30
0.0
 40
0.00393701
 41
0.00393701
  0
VERTEX
  8
0
 10
0.227539
 20
0.58724
 30
0.0
 40
0.00393701
 41
0.00393701
  0
SEQEND
 8
0
  0
POLYLINE
  8
0
 62
     1
 66
     1
 10
0
 20
0
 30
0.0
 70
     1
 40
0.410567
 41
0.410567
  0
VERTEX
  8
0
 10
2.22347
 20
0.590224
 30
0.0
 40
0.00570232
 41
0.00570232
  0
VERTEX
  8
0
 10
2.22347
 20
0.567546
 30
0.0
 40
0.00570232
 41
0.00570232
  0
VERTEX
  8
0
 10
2.20508
 20
0.499403
 30
0.0
 40
0.00570232
 41
0.00570232
  0
VERTEX
  8
0
 10
2.15511
 20
0.425185
 30
0.0
 40
0.00570232
 41
0.00570232
  0
VERTEX
  8
0
 10
2.08089
 20
0.375217
 30
0.0
 40
0.00570232
 41
0.00570232
  0
VERTEX
  8
0
 10
2.01275
 20
0.356825
 30
0.0
 40
0.00570232
 41
0.00570232
  0
VERTEX
  8
0
 10
1.99007
 20
0.356825
 30
0.0
 40
0.00570232
 41
0.00570232
  0
VERTEX
  8
0
 10
1.96733
 20
0.356825
 30
0.0
 40
0.00570232
 41
0.00570232
  0
VERTEX
  8
0
 10
1.89919
 20
0.375217
 30
0.0
 40
0.00570232
 41
0.00570232
  0
VERTEX
  8
0
 10
1.82503
 20
0.425185
 30
0.0
 40
0.00570232
 41
0.00570232
  0
VERTEX
  8
0
 10
1.77501
 20
0.499403
 30
0.0
 40
0.00570232
 41
0.00570232
  0
VERTEX
  8
0
 10
1.75672
 20
0.567546
 30
0.0
 40
0.00570232
 41
0.00570232
  0
VERTEX
  8
0
 10
1.75672
 20
0.590224
 30
0.0
 40
0.00570232
 41
0.00570232
  0
VERTEX
  8
0
 10
1.75672
 20
0.612956
 30
0.0
 40
0.00570232
 41
0.00570232
  0
VERTEX
  8
0
 10
1.77501
 20
0.681044
 30
0.0
 40
0.00570232
 41
0.00570232
  0
VERTEX
  8
0
 10
1.82503
 20
0.755262
 30
0.0
 40
0.00570232
 41
0.00570232
  0
VERTEX
  8
0
 10
1.89919
 20
0.805231
 30
0.0
 40
0.00570232
 41
0.00570232
  0
VERTEX
  8
0
 10
1.96733
 20
0.823568
 30
0.0
 40
0.00570232
 41
0.00570232
  0
VERTEX
  8
0
 10
1.99007
 20
0.823568
 30
0.0
 40
0.00570232
 41
0.00570232
  0
VERTEX
  8
0
 10
2.01275
 20
0.823568
 30
0.0
 40
0.00570232
 41
0.00570232
  0
VERTEX
  8
0
 10
2.08089
 20
0.805231
 30
0.0
 40
0.00570232
 41
0.00570232
  0
VERTEX
  8
0
 10
2.15511
 20
0.755262
 30
0.0
 40
0.00570232
 41
0.00570232
  0
VERTEX
  8
0
 10
2.20508
 20
0.681044
 30
0.0
 40
0.00570232
 41
0.00570232
  0
VERTEX
  8
0
 10
2.22347
 20
0.612956
 30
0.0
 40
0.00570232
 41
0.00570232
  0
VERTEX
  8
0
 10
2.22347
 20
0.590224
 30
0.0
 40
0.00570232
 41
0.00570232
  0
SEQEND
 8
0
  0
POLYLINE
  8
0
 62
     1
 66
     1
 10
0
 20
0
 30
0.0
 70
     1
 40
0.283465
 41
0.283465
  0
VERTEX
  8
0
 10
0.00434028
 20
0.530599
 30
0.0
 40
0.00393701
 41
0.00393701
  0
VERTEX
  8
0
 10
0.00374349
 20
0.542751
 30
0.0
 40
0.00393701
 41
0.00393701
  0
VERTEX
  8
0
 10
0.00330946
 20
0.664333
 30
0.0
 40
0.00393701
 41
0.00393701
  0
VERTEX
  8
0
 10
0.00434028
 20
0.676432
 30
0.0
 40
0.00393701
 41
0.00393701
  0
VERTEX
  8
0
 10
0.00515408
 20
0.686415
 30
0.0
 40
0.00393701
 41
0.00393701
  0
VERTEX
  8
0
 10
0.0212131
 20
0.785265
 30
0.0
 40
0.00393701
 41
0.00393701
  0
VERTEX
  8
0
 10
0.0238715
 20
0.794922
 30
0.0
 40
0.00393701
 41
0.00393701
  0
VERTEX
  8
0
 10
0.026096
 20
0.803114
 30
0.0
 40
0.00393701
 41
0.00393701
  0
VERTEX
  8
0
 10
0.0562067
 20
0.882542
 30
0.0
 40
0.00393701
 41
0.00393701
  0
VERTEX
  8
0
 10
0.0603299
 20
0.889974
 30
0.0
 40
0.00393701
 41
0.00393701
  0
VERTEX
  8
0
 10
0.0636393
 20
0.89605
 30
0.0
 40
0.00393701
 41
0.00393701
  0
VERTEX
  8
0
 10
0.0754124
 20
0.913357
 30
0.0
 40
0.00393701
 41
0.00393701
  0
VERTEX
  8
0
 10
0.0939671
 20
0.938043
 30
0.0
 40
0.00393701
 41
0.00393701
  0
VERTEX
  8
0
 10
0.109646
 20
0.957574
 30
0.0
 40
0.00393701
 41
0.00393701
  0
VERTEX
  8
0
 10
0.116319
 20
0.965494
 30
0.0
 40
0.00393701
 41
0.00393701
  0
VERTEX
  8
0
 10
0.116319
 20
0.965494
 30
0.0
 40
0.00393701
 41
0.00393701
  0
VERTEX
  8
0
 10
0.116319
 20
0.965494
 30
0.0
 40
0.00393701
 41
0.00393701
  0
VERTEX
  8
0
 10
0.12424
 20
0.972547
 30
0.0
 40
0.00393701
 41
0.00393701
  0
VERTEX
  8
0
 10
0.143718
 20
0.989204
 30
0.0
 40
0.00393701
 41
0.00393701
  0
VERTEX
  8
0
 10
0.168403
 20
1.00901
 30
0.0
 40
0.00393701
 41
0.00393701
  0
VERTEX
  8
0
 10
0.18571
 20
1.0217
 30
0.0
 40
0.00393701
 41
0.00393701
  0
VERTEX
  8
0
 10
0.19184
 20
1.02539
 30
0.0
 40
0.00393701
 41
0.00393701
  0
VERTEX
  8
0
 10
0.200956
 20
1.03093
 30
0.0
 40
0.00393701
 41
0.00393701
  0
VERTEX
  8
0
 10
0.249024
 20
1.05436
 30
0.0
 40
0.00393701
 41
0.00393701
  0
VERTEX
  8
0
 10
0.298936
 20
1.07389
 30
0.0
 40
0.00393701
 41
0.00393701
  0
VERTEX
  8
0
 10
0.309028
 20
1.07747
 30
0.0
 40
0.00393701
 41
0.00393701
  0
VERTEX
  8
0
 10
0.319174
 20
1.08111
 30
0.0
 40
0.00393701
 41
0.00393701
  0
VERTEX
  8
0
 10
0.423449
 20
1.10921
 30
0.0
 40
0.00393701
 41
0.00393701
  0
VERTEX
  8
0
 10
0.434028
 20
1.11133
 30
0.0
 40
0.00393701
 41
0.00393701
  0
VERTEX
  8
0
 10
0.448947
 20
1.11437
 30
0.0
 40
0.00393701
 41
0.00393701
  0
VERTEX
  8
0
 10
0.599881
 20
1.13449
 30
0.0
 40
0.00393701
 41
0.00393701
  0
VERTEX
  8
0
 10
0.615018
 20
1.13607
 30
0.0
 40
0.00393701
 41
0.00393701
  0
VERTEX
  8
0
 10
0.63189
 20
1.1378
 30
0.0
 40
0.00393701
 41
0.00393701
  0
VERTEX
  8
0
 10
0.801161
 20
1.14947
 30
0.0
 40
0.00393701
 41
0.00393701
  0
VERTEX
  8
0
 10
0.818143
 20
1.15039
 30
0.0
 40
0.00393701
 41
0.00393701
  0
VERTEX
  8
0
 10
0.83469
 20
1.15131
 30
0.0
 40
0.00393701
 41
0.00393701
  0
VERTEX
  8
0
 10
1.00076
 20
1.15777
 30
0.0
 40
0.00393701
 41
0.00393701
  0
VERTEX
  8
0
 10
1.01736
 20
1.1582
 30
0.0
 40
0.00393701
 41
0.00393701
  0
VERTEX
  8
0
 10
1.03548
 20
1.15875
 30
0.0
 40
0.00393701
 41
0.00393701
  0
VERTEX
  8
0
 10
1.21669
 20
1.16184
 30
0.0
 40
0.00393701
 41
0.00393701
  0
VERTEX
  8
0
 10
1.23481
 20
1.16211
 30
0.0
 40
0.00393701
 41
0.00393701
  0
VERTEX
  8
0
 10
1.25499
 20
1.16243
 30
0.0
 40
0.00393701
 41
0.00393701
  0
VERTEX
  8
0
 10
1.45682
 20
1.16477
 30
0.0
 40
0.00393701
 41
0.00393701
  0
VERTEX
  8
0
 10
1.477
 20
1.16471
 30
0.0
 40
0.00393701
 41
0.00393701
  0
VERTEX
  8
0
 10
1.50162
 20
1.16471
 30
0.0
 40
0.00393701
 41
0.00393701
  0
VERTEX
  8
0
 10
1.74794
 20
1.16151
 30
0.0
 40
0.00393701
 41
0.00393701
  0
VERTEX
  8
0
 10
1.77257
 20
1.16081
 30
0.0
 40
0.00393701
 41
0.00393701
  0
VERTEX
  8
0
 10
1.78549
 20
1.16048
 30
0.0
 40
0.00393701
 41
0.00393701
  0
VERTEX
  8
0
 10
1.91461
 20
1.155
 30
0.0
 40
0.00393701
 41
0.00393701
  0
VERTEX
  8
0
 10
1.92751
 20
1.1543
 30
0.0
 40
0.00393701
 41
0.00393701
  0
VERTEX
  8
0
 10
1.93728
 20
1.15375
 30
0.0
 40
0.00393701
 41
0.00393701
  0
VERTEX
  8
0
 10
2.03494
 20
1.14735
 30
0.0
 40
0.00393701
 41
0.00393701
  0
VERTEX
  8
0
 10
2.04471
 20
1.14648
 30
0.0
 40
0.00393701
 41
0.00393701
  0
VERTEX
  8
0
 10
2.05806
 20
1.14534
 30
0.0
 40
0.00393701
 41
0.00393701
  0
VERTEX
  8
0
 10
2.19162
 20
1.13178
 30
0.0
 40
0.00393701
 41
0.00393701
  0
VERTEX
  8
0
 10
2.20486
 20
1.12956
 30
0.0
 40
0.00393701
 41
0.00393701
  0
VERTEX
  8
0
 10
2.21789
 20
1.12739
 30
0.0
 40
0.00393701
 41
0.00393701
  0
VERTEX
  8
0
 10
2.34711
 20
1.0982
 30
0.0
 40
0.00393701
 41
0.00393701
  0
VERTEX
  8
0
 10
2.35981
 20
1.0944
 30
0.0
 40
0.00393701
 41
0.00393701
  0
VERTEX
  8
0
 10
2.36778
 20
1.09201
 30
0.0
 40
0.00393701
 41
0.00393701
  0
VERTEX
  8
0
 10
2.44596
 20
1.06272
 30
0.0
 40
0.00393701
 41
0.00393701
  0
VERTEX
  8
0
 10
2.45356
 20
1.05924
 30
0.0
 40
0.00393701
 41
0.00393701
  0
VERTEX
  8
0
 10
2.45958
 20
1.05653
 30
0.0
 40
0.00393701
 41
0.00393701
  0
VERTEX
  8
0
 10
2.51839
 20
1.02528
 30
0.0
 40
0.00393701
 41
0.00393701
  0
VERTEX
  8
0
 10
2.52387
 20
1.02148
 30
0.0
 40
0.00393701
 41
0.00393701
  0
VERTEX
  8
0
 10
2.52892
 20
1.01801
 30
0.0
 40
0.00393701
 41
0.00393701
  0
VERTEX
  8
0
 10
2.57557
 20
0.977756
 30
0.0
 40
0.00393701
 41
0.00393701
  0
VERTEX
  8
0
 10
2.57986
 20
0.973307
 30
0.0
 40
0.00393701
 41
0.00393701
  0
VERTEX
  8
0
 10
2.58458
 20
0.968317
 30
0.0
 40
0.00393701
 41
0.00393701
  0
VERTEX
  8
0
 10
2.60471
 20
0.941026
 30
0.0
 40
0.00393701
 41
0.00393701
  0
VERTEX
  8
0
 10
2.62207
 20
0.911621
 30
0.0
 40
0.00393701
 41
0.00393701
  0
VERTEX
  8
0
 10
2.62543
 20
0.905599
 30
0.0
 40
0.00393701
 41
0.00393701
  0
VERTEX
  8
0
 10
2.62907
 20
0.899035
 30
0.0
 40
0.00393701
 41
0.00393701
  0
VERTEX
  8
0
 10
2.65972
 20
0.830783
 30
0.0
 40
0.00393701
 41
0.00393701
  0
VERTEX
  8
0
 10
2.66189
 20
0.823568
 30
0.0
 40
0.00393701
 41
0.00393701
  0
VERTEX
  8
0
 10
2.66368
 20
0.817492
 30
0.0
 40
0.00393701
 41
0.00393701
  0
VERTEX
  8
0
 10
2.67774
 20
0.755643
 30
0.0
 40
0.00393701
 41
0.00393701
  0
VERTEX
  8
0
 10
2.67882
 20
0.749349
 30
0.0
 40
0.00393701
 41
0.00393701
  0
VERTEX
  8
0
 10
2.68012
 20
0.741265
 30
0.0
 40
0.00393701
 41
0.00393701
  0
VERTEX
  8
0
 10
2.68886
 20
0.659885
 30
0.0
 40
0.00393701
 41
0.00393701
  0
VERTEX
  8
0
 10
2.68924
 20
0.651693
 30
0.0
 40
0.00393701
 41
0.00393701
  0
VERTEX
  8
0
 10
2.68961
 20
0.643338
 30
0.0
 40
0.00393701
 41
0.00393701
  0
VERTEX
  8
0
 10
2.68826
 20
0.559787
 30
0.0
 40
0.00393701
 41
0.00393701
  0
VERTEX
  8
0
 10
2.68793
 20
0.551432
 30
0.0
 40
0.00393701
 41
0.00393701
  0
VERTEX
  8
0
 10
2.68761
 20
0.543403
 30
0.0
 40
0.00393701
 41
0.00393701
  0
VERTEX
  8
0
 10
2.68246
 20
0.463053
 30
0.0
 40
0.00393701
 41
0.00393701
  0
VERTEX
  8
0
 10
2.68143
 20
0.455078
 30
0.0
 40
0.00393701
 41
0.00393701
  0
VERTEX
  8
0
 10
2.68072
 20
0.449924
 30
0.0
 40
0.00393701
 41
0.00393701
  0
VERTEX
  8
0
 10
2.67106
 20
0.398926
 30
0.0
 40
0.00393701
 41
0.00393701
  0
VERTEX
  8
0
 10
2.66971
 20
0.393881
 30
0.0
 40
0.00393701
 41
0.00393701
  0
VERTEX
  8
0
 10
2.66764
 20
0.386339
 30
0.0
 40
0.00393701
 41
0.00393701
  0
VERTEX
  8
0
 10
2.64187
 20
0.312392
 30
0.0
 40
0.00393701
 41
0.00393701
  0
VERTEX
  8
0
 10
2.63846
 20
0.305339
 30
0.0
 40
0.00393701
 41
0.00393701
  0
VERTEX
  8
0
 10
2.63569
 20
0.299696
 30
0.0
 40
0.00393701
 41
0.00393701
  0
VERTEX
  8
0
 10
2.60206
 20
0.246419
 30
0.0
 40
0.00393701
 41
0.00393701
  0
VERTEX
  8
0
 10
2.5981
 20
0.241536
 30
0.0
 40
0.00393701
 41
0.00393701
  0
VERTEX
  8
0
 10
2.59369
 20
0.236219
 30
0.0
 40
0.00393701
 41
0.00393701
  0
VERTEX
  8
0
 10
2.54368
 20
0.188422
 30
0.0
 40
0.00393701
 41
0.00393701
  0
VERTEX
  8
0
 10
2.53819
 20
0.184244
 30
0.0
 40
0.00393701
 41
0.00393701
  0
VERTEX
  8
0
 10
2.53162
 20
0.179362
 30
0.0
 40
0.00393701
 41
0.00393701
  0
VERTEX
  8
0
 10
2.46104
 20
0.138075
 30
0.0
 40
0.00393701
 41
0.00393701
  0
VERTEX
  8
0
 10
2.45356
 20
0.134766
 30
0.0
 40
0.00393701
 41
0.00393701
  0
VERTEX
  8
0
 10
2.44233
 20
0.129883
 30
0.0
 40
0.00393701
 41
0.00393701
  0
VERTEX
  8
0
 10
2.38422
 20
0.110352
 30
0.0
 40
0.00393701
 41
0.00393701
  0
VERTEX
  8
0
 10
2.32482
 20
0.0947808
 30
0.0
 40
0.00393701
 41
0.00393701
  0
VERTEX
  8
0
 10
2.31293
 20
0.0917969
 30
0.0
 40
0.00393701
 41
0.00393701
  0
VERTEX
  8
0
 10
2.29926
 20
0.0883789
 30
0.0
 40
0.00393701
 41
0.00393701
  0
VERTEX
  8
0
 10
2.16146
 20
0.0613607
 30
0.0
 40
0.00393701
 41
0.00393701
  0
VERTEX
  8
0
 10
2.14757
 20
0.0592449
 30
0.0
 40
0.00393701
 41
0.00393701
  0
VERTEX
  8
0
 10
2.13667
 20
0.0576172
 30
0.0
 40
0.00393701
 41
0.00393701
  0
VERTEX
  8
0
 10
2.02701
 20
0.0458442
 30
0.0
 40
0.00393701
 41
0.00393701
  0
VERTEX
  8
0
 10
2.01606
 20
0.0449219
 30
0.0
 40
0.00393701
 41
0.00393701
  0
VERTEX
  8
0
 10
2.00444
 20
0.0439996
 30
0.0
 40
0.00393701
 41
0.00393701
  0
VERTEX
  8
0
 10
1.88835
 20
0.0377061
 30
0.0
 40
0.00393701
 41
0.00393701
  0
VERTEX
  8
0
 10
1.87674
 20
0.0371094
 30
0.0
 40
0.00393701
 41
0.00393701
  0
VERTEX
  8
0
 10
1.85851
 20
0.0361871
 30
0.0
 40
0.00393701
 41
0.00393701
  0
VERTEX
  8
0
 10
1.67622
 20
0.0275608
 30
0.0
 40
0.00393701
 41
0.00393701
  0
VERTEX
  8
0
 10
1.65799
 20
0.0266928
 30
0.0
 40
0.00393701
 41
0.00393701
  0
VERTEX
  8
0
 10
1.6505
 20
0.0263672
 30
0.0
 40
0.00393701
 41
0.00393701
  0
VERTEX
  8
0
 10
1.61421
 20
0.0234918
 30
0.0
 40
0.00393701
 41
0.00393701
  0
VERTEX
  8
0
 10
1.57639
 20
0.0222982
 30
0.0
 40
0.00393701
 41
0.00393701
  0
VERTEX
  8
0
 10
1.56814
 20
0.0227865
 30
0.0
 40
0.00393701
 41
0.00393701
  0
VERTEX
  8
0
 10
1.56467
 20
0.0230035
 30
0.0
 40
0.00393701
 41
0.00393701
  0
VERTEX
  8
0
 10
1.55257
 20
0.0347222
 30
0.0
 40
0.00393701
 41
0.00393701
  0
VERTEX
  8
0
 10
1.5421
 20
0.05051
 30
0.0
 40
0.00393701
 41
0.00393701
  0
VERTEX
  8
0
 10
1.5395
 20
0.0527344
 30
0.0
 40
0.00393701
 41
0.00393701
  0
VERTEX
  8
0
 10
1.53749
 20
0.0544706
 30
0.0
 40
0.00393701
 41
0.00393701
  0
VERTEX
  8
0
 10
1.51585
 20
0.0699328
 30
0.0
 40
0.00393701
 41
0.00393701
  0
VERTEX
  8
0
 10
1.51346
 20
0.0709636
 30
0.0
 40
0.00393701
 41
0.00393701
  0
VERTEX
  8
0
 10
1.50965
 20
0.0726454
 30
0.0
 40
0.00393701
 41
0.00393701
  0
VERTEX
  8
0
 10
1.46935
 20
0.0809462
 30
0.0
 40
0.00393701
 41
0.00393701
  0
VERTEX
  8
0
 10
1.46528
 20
0.0813803
 30
0.0
 40
0.00393701
 41
0.00393701
  0
VERTEX
  8
0
 10
1.46203
 20
0.08176
 30
0.0
 40
0.00393701
 41
0.00393701
  0
VERTEX
  8
0
 10
1.42947
 20
0.0814344
 30
0.0
 40
0.00393701
 41
0.00393701
  0
VERTEX
  8
0
 10
1.42622
 20
0.0813803
 30
0.0
 40
0.00393701
 41
0.00393701
  0
VERTEX
  8
0
 10
1.40831
 20
0.0812175
 30
0.0
 40
0.00393701
 41
0.00393701
  0
VERTEX
  8
0
 10
1.22922
 20
0.0786133
 30
0.0
 40
0.00393701
 41
0.00393701
  0
VERTEX
  8
0
 10
1.21137
 20
0.077474
 30
0.0
 40
0.00393701
 41
0.00393701
  0
VERTEX
  8
0
 10
1.20828
 20
0.0773113
 30
0.0
 40
0.00393701
 41
0.00393701
  0
VERTEX
  8
0
 10
1.17779
 20
0.07449
 30
0.0
 40
0.00393701
 41
0.00393701
  0
VERTEX
  8
0
 10
1.17491
 20
0.0735678
 30
0.0
 40
0.00393701
 41
0.00393701
  0
VERTEX
  8
0
 10
1.17269
 20
0.0729167
 30
0.0
 40
0.00393701
 41
0.00393701
  0
VERTEX
  8
0
 10
1.15186
 20
0.0621203
 30
0.0
 40
0.00393701
 41
0.00393701
  0
VERTEX
  8
0
 10
1.15017
 20
0.0605469
 30
0.0
 40
0.00393701
 41
0.00393701
  0
VERTEX
  8
0
 10
1.14806
 20
0.0586481
 30
0.0
 40
0.00393701
 41
0.00393701
  0
VERTEX
  8
0
 10
1.13352
 20
0.0342339
 30
0.0
 40
0.00393701
 41
0.00393701
  0
VERTEX
  8
0
 10
1.13194
 20
0.0319011
 30
0.0
 40
0.00393701
 41
0.00393701
  0
VERTEX
  8
0
 10
1.13129
 20
0.0310331
 30
0.0
 40
0.00393701
 41
0.00393701
  0
VERTEX
  8
0
 10
1.12511
 20
0.0219726
 30
0.0
 40
0.00393701
 41
0.00393701
  0
VERTEX
  8
0
 10
1.12413
 20
0.0214844
 30
0.0
 40
0.00393701
 41
0.00393701
  0
VERTEX
  8
0
 10
1.11947
 20
0.0191515
 30
0.0
 40
0.00393701
 41
0.00393701
  0
VERTEX
  8
0
 10
1.09304
 20
0.0146485
 30
0.0
 40
0.00393701
 41
0.00393701
  0
VERTEX
  8
0
 10
1.06554
 20
0.0149197
 30
0.0
 40
0.00393701
 41
0.00393701
  0
VERTEX
  8
0
 10
1.06033
 20
0.014974
 30
0.0
 40
0.00393701
 41
0.00393701
  0
VERTEX
  8
0
 10
1.03982
 20
0.015191
 30
0.0
 40
0.00393701
 41
0.00393701
  0
VERTEX
  8
0
 10
0.835992
 20
0.0258789
 30
0.0
 40
0.00393701
 41
0.00393701
  0
VERTEX
  8
0
 10
0.815539
 20
0.0266928
 30
0.0
 40
0.00393701
 41
0.00393701
  0
VERTEX
  8
0
 10
0.801378
 20
0.0272894
 30
0.0
 40
0.00393701
 41
0.00393701
  0
VERTEX
  8
0
 10
0.660319
 20
0.0358615
 30
0.0
 40
0.00393701
 41
0.00393701
  0
VERTEX
  8
0
 10
0.646268
 20
0.0371094
 30
0.0
 40
0.00393701
 41
0.00393701
  0
VERTEX
  8
0
 10
0.632867
 20
0.0383572
 30
0.0
 40
0.00393701
 41
0.00393701
  0
VERTEX
  8
0
 10
0.499349
 20
0.0544162
 30
0.0
 40
0.00393701
 41
0.00393701
  0
VERTEX
  8
0
 10
0.486111
 20
0.0566407
 30
0.0
 40
0.00393701
 41
0.00393701
  0
VERTEX
  8
0
 10
0.473579
 20
0.0587565
 30
0.0
 40
0.00393701
 41
0.00393701
  0
VERTEX
  8
0
 10
0.349826
 20
0.0857747
 30
0.0
 40
0.00393701
 41
0.00393701
  0
VERTEX
  8
0
 10
0.337674
 20
0.0891928
 30
0.0
 40
0.00393701
 41
0.00393701
  0
VERTEX
  8
0
 10
0.329699
 20
0.0914714
 30
0.0
 40
0.00393701
 41
0.00393701
  0
VERTEX
  8
0
 10
0.251519
 20
0.11849
 30
0.0
 40
0.00393701
 41
0.00393701
  0
VERTEX
  8
0
 10
0.243924
 20
0.121745
 30
0.0
 40
0.00393701
 41
0.00393701
  0
VERTEX
  8
0
 10
0.237847
 20
0.124349
 30
0.0
 40
0.00393701
 41
0.00393701
  0
VERTEX
  8
0
 10
0.17909
 20
0.154622
 30
0.0
 40
0.00393701
 41
0.00393701
  0
VERTEX
  8
0
 10
0.173611
 20
0.158203
 30
0.0
 40
0.00393701
 41
0.00393701
  0
VERTEX
  8
0
 10
0.168078
 20
0.161783
 30
0.0
 40
0.00393701
 41
0.00393701
  0
VERTEX
  8
0
 10
0.116862
 20
0.202908
 30
0.0
 40
0.00393701
 41
0.00393701
  0
VERTEX
  8
0
 10
0.112413
 20
0.207682
 30
0.0
 40
0.00393701
 41
0.00393701
  0
VERTEX
  8
0
 10
0.106445
 20
0.214085
 30
0.0
 40
0.00393701
 41
0.00393701
  0
VERTEX
  8
0
 10
0.0565864
 20
0.285915
 30
0.0
 40
0.00393701
 41
0.00393701
  0
VERTEX
  8
0
 10
0.0525174
 20
0.293619
 30
0.0
 40
0.00393701
 41
0.00393701
  0
VERTEX
  8
0
 10
0.0492622
 20
0.299696
 30
0.0
 40
0.00393701
 41
0.00393701
  0
VERTEX
  8
0
 10
0.0243056
 20
0.363824
 30
0.0
 40
0.00393701
 41
0.00393701
  0
VERTEX
  8
0
 10
0.0225694
 20
0.370443
 30
0.0
 40
0.00393701
 41
0.00393701
  0
VERTEX
  8
0
 10
0.0212131
 20
0.375435
 30
0.0
 40
0.00393701
 41
0.00393701
  0
VERTEX
  8
0
 10
0.0140517
 20
0.42654
 30
0.0
 40
0.00393701
 41
0.00393701
  0
VERTEX
  8
0
 10
0.0134549
 20
0.43164
 30
0.0
 40
0.00393701
 41
0.00393701
  0
VERTEX
  8
0
 10
0.012424
 20
0.439888
 30
0.0
 40
0.00393701
 41
0.00393701
  0
VERTEX
  8
0
 10
0.00472006
 20
0.522353
 30
0.0
 40
0.00393701
 41
0.00393701
  0
VERTEX
  8
0
 10
0.00434028
 20
0.530599
 30
0.0
 40
0.00393701
 41
0.00393701
  0
SEQEND
 8
0
  0
ENDSEC
  0
EOF
